<svg width="76" height="75" xmlns="http://www.w3.org/2000/svg" xmlns:xlink="http://www.w3.org/1999/xlink" xml:space="preserve" overflow="hidden"><g transform="translate(-80 -131)"><path d="M64.7478 35.8563 58.5171 30.3598 58.5171 17.7926C58.5134 17.2461 58.0714 16.8041 57.5249 16.8004L49.806 16.8004C49.258 16.8004 48.8138 17.2446 48.8138 17.7926L48.8138 21.7612 38.6344 12.8384C38.2555 12.5075 37.6904 12.5075 37.3115 12.8384L10.6822 35.8497C10.2676 36.215 10.2276 36.8473 10.5929 37.2619 10.9582 37.6765 11.5904 37.7165 12.005 37.3512L16.7144 33.2834 16.7144 60.2302C16.7144 60.7781 17.1587 61.2223 17.7066 61.2223L57.5448 61.2223C58.0927 61.2223 58.5369 60.7781 58.5369 60.2302L58.5369 33.0056 63.458 37.3446C63.8689 37.7099 64.4982 37.6728 64.8635 37.2619 65.2288 36.8509 65.1918 36.2216 64.7808 35.8563ZM50.7981 18.8112 56.5328 18.8112 56.5328 28.6136 50.7981 23.5603ZM24.8038 59.238 24.8038 40.0168 35.1552 40.0168 35.1552 59.238ZM56.5526 59.238 37.1395 59.238 37.1395 39.0246C37.1395 38.4767 36.6953 38.0325 36.1474 38.0325L23.8116 38.0325C23.2637 38.0325 22.8195 38.4767 22.8195 39.0246L22.8195 59.238 18.6723 59.238 18.6723 31.5702 37.9663 14.9021 56.5328 31.2528Z" fill="#007A53" transform="matrix(1.01333 0 0 1 80 131)"/><path d="M42.3913 49.9449 51.9689 49.9449C52.5168 49.9449 52.961 49.5007 52.961 48.9527L52.961 39.0246C52.961 38.4767 52.5168 38.0325 51.9689 38.0325L42.3913 38.0325C41.8434 38.0325 41.3992 38.4767 41.3992 39.0246L41.3992 48.9461C41.3955 49.494 41.8368 49.9412 42.3847 49.9449 42.3869 49.9449 42.3891 49.9449 42.3913 49.9449ZM43.3835 40.0234 50.9767 40.0234 50.9767 47.9606 43.3835 47.9606Z" fill="#007A53" transform="matrix(1.01333 0 0 1 80 131)"/></g></svg>